<svg width="27" height="26" viewBox="0 0 27 26" fill="none" xmlns="http://www.w3.org/2000/svg">
<path d="M2.40668 13.4333C2.40668 10.1649 2.40668 8.53125 3.43151 7.51508C4.45743 6.5 6.10734 6.5 9.40718 6.5H10.5728C13.8738 6.5 15.5237 6.5 16.5485 7.51508C17.5733 8.53017 17.5733 10.1649 17.5733 13.4333V16.9C17.5733 20.1684 17.5733 21.8021 16.5485 22.8183C15.5226 23.8333 13.8727 23.8333 10.5728 23.8333H9.40718C6.10734 23.8333 4.45634 23.8333 3.43151 22.8183C2.40668 21.8032 2.40668 20.1684 2.40668 16.9V13.4333Z" stroke="#545458" stroke-opacity="0.65" stroke-width="1.625" stroke-linecap="round" stroke-linejoin="round"/>
<path d="M17.0728 17.3333H18.0727C20.9013 17.3333 22.3162 17.3333 23.1947 16.445C24.0733 15.5566 24.0733 14.1266 24.0733 11.2666V8.23329C24.0733 5.37329 24.0733 3.94329 23.1947 3.05496C22.3162 2.16663 20.9013 2.16663 18.0717 2.16663H17.0717C14.2421 2.16663 12.8283 2.16663 11.9497 3.05496C11.1806 3.83171 11.0842 5.02338 11.0722 7.22254M6.73999 13H9.98999M6.73999 18.4166H12.1567M11.615 3.24996L15.9483 7.04163" stroke="#545458" stroke-opacity="0.65" stroke-width="1.625" stroke-linecap="round" stroke-linejoin="round"/>
</svg>
