<svg width="26" height="26" viewBox="0 0 26 26" fill="none" xmlns="http://www.w3.org/2000/svg">
<path d="M3.25 14.0833V11.9166C3.25 7.85413 3.25 5.82288 4.28458 4.39938C4.61832 3.93969 5.02228 3.53536 5.48167 3.20121C6.90625 2.16663 8.93858 2.16663 13 2.16663C17.0614 2.16663 19.0937 2.16663 20.5172 3.20121C20.977 3.53527 21.3814 3.9396 21.7154 4.39938C22.75 5.82288 22.75 7.85521 22.75 11.9166V14.0833C22.75 18.1458 22.75 20.177 21.7154 21.6005C21.3814 22.0603 20.977 22.4647 20.5172 22.7987C19.0937 23.8333 17.0614 23.8333 13 23.8333C8.93858 23.8333 6.90625 23.8333 5.48275 22.7987C5.02298 22.4647 4.61864 22.0603 4.28458 21.6005C3.70933 20.8086 3.45367 19.8293 3.341 18.4166M7.58333 9.74996H18.4167" stroke="#545458" stroke-opacity="0.65" stroke-width="1.5" stroke-linecap="round"/>
</svg>
